<?xml version="1.0" encoding="UTF-8" standalone="no"?>
<!-- Created with Inkscape (http://www.inkscape.org/) -->

<svg
   width="221.134"
   height="69.002373"
   viewBox="0 0 221.134 69.002373"
   version="1.1"
   id="svg1"
   inkscape:version="1.3 (0e150ed6c4, 2023-07-21)"
   sodipodi:docname="banner_v2.svg"
   inkscape:export-filename="banner_v2.png"
   inkscape:export-xdpi="96"
   inkscape:export-ydpi="96"
   xmlns:inkscape="http://www.inkscape.org/namespaces/inkscape"
   xmlns:sodipodi="http://sodipodi.sourceforge.net/DTD/sodipodi-0.dtd"
   xmlns:xlink="http://www.w3.org/1999/xlink"
   xmlns="http://www.w3.org/2000/svg"
   xmlns:svg="http://www.w3.org/2000/svg">
  <sodipodi:namedview
     id="namedview1"
     pagecolor="#ffffff"
     bordercolor="#000000"
     borderopacity="0.25"
     inkscape:showpageshadow="2"
     inkscape:pageopacity="0.0"
     inkscape:pagecheckerboard="0"
     inkscape:deskcolor="#d1d1d1"
     inkscape:document-units="px"
     inkscape:zoom="4.5766666"
     inkscape:cx="116.24181"
     inkscape:cy="41.187182"
     inkscape:window-width="1920"
     inkscape:window-height="1007"
     inkscape:window-x="0"
     inkscape:window-y="0"
     inkscape:window-maximized="1"
     inkscape:current-layer="layer1"
     showguides="true">
    <sodipodi:guide
       position="51.345294,628"
       orientation="0,-1"
       id="guide1"
       inkscape:locked="false" />
    <sodipodi:guide
       position="51.345294,558.99762"
       orientation="0,-1"
       id="guide2"
       inkscape:locked="false" />
  </sodipodi:namedview>
  <defs
     id="defs1">
    <linearGradient
       id="linearGradient1"
       inkscape:collect="always">
      <stop
         style="stop-color:#dbd47e;stop-opacity:1;"
         offset="0"
         id="stop1" />
      <stop
         style="stop-color:#c3b92f;stop-opacity:1;"
         offset="0.92665869"
         id="stop2" />
    </linearGradient>
    <radialGradient
       inkscape:collect="always"
       xlink:href="#linearGradient1"
       id="radialGradient2"
       cx="432.67569"
       cy="319.35785"
       fx="432.67569"
       fy="319.35785"
       r="34.501186"
       gradientUnits="userSpaceOnUse"
       gradientTransform="matrix(-1.354195,-0.98767827,1.1495726,-1.5761667,639.12142,1215.6637)" />
  </defs>
  <g
     inkscape:label="Layer 1"
     inkscape:groupmode="layer"
     id="layer1"
     transform="translate(-351.20274,-279.49881)">
    <g
       id="g3"
       transform="matrix(0.84779916,0,0,0.84779916,75.317497,47.791063)">
      <circle
         style="fill:url(#radialGradient2);fill-opacity:1;stroke:none;stroke-width:0.601101;stroke-linecap:butt;stroke-linejoin:bevel;stroke-dasharray:none;stroke-opacity:1"
         id="path25"
         cx="402.54803"
         cy="314"
         r="34.501186" />
      <path
         id="path21"
         style="color:#000000;fill:#5f80cf;fill-opacity:1;stroke-width:0.604196;-inkscape-stroke:none"
         d="m 381.50964,284.02798 c -0.37679,-0.13374 -0.75982,-0.27909 -1.13245,-0.40573 -0.10555,-0.0359 -0.21003,-0.0647 -0.31522,-0.0985 -0.432,-0.1393 -0.86262,-0.27046 -1.29498,-0.40937 -0.0142,-0.005 -0.0296,-0.009 -0.0438,-0.014 -0.34725,-0.11139 -0.6917,-0.21252 -1.03787,-0.31956 -0.007,-0.002 -0.0143,-0.003 -0.0215,-0.006 -1.34822,-0.41657 -2.68565,-0.79992 -4.00405,-1.139 -0.24785,-0.0641 -0.49172,-0.12159 -0.73807,-0.18255 -0.41758,-0.10277 -0.83693,-0.21096 -1.24967,-0.30427 -0.69658,-0.15824 -1.38727,-0.30298 -2.0672,-0.43122 -0.55725,-0.10511 -1.1107,-0.20502 -1.65478,-0.29008 -0.19611,-0.0311 -0.38804,-0.053 -0.58227,-0.0813 -0.38491,-0.0554 -0.77102,-0.11547 -1.14807,-0.15992 -0.56899,-0.0678 -1.12812,-0.12445 -1.67714,-0.16542 -1.18604,-0.0885 -2.32318,-0.11249 -3.39979,-0.0684 -3.2298,0.13216 -5.91618,0.89325 -7.74246,2.48065 -4.87007,4.23306 -1.0489,12.09526 5.62597,19.74774 0.76484,0.87686 1.58735,1.76668 2.44609,2.66167 0.46941,0.49103 0.97704,0.98846 1.47286,1.48409 0.35895,0.35726 0.70615,0.70987 1.07862,1.06928 0.7369,0.71418 1.51005,1.43346 2.29888,2.15495 0.0447,0.0408 0.0899,0.0818 0.13439,0.12269 0.069,0.0639 0.13723,0.12848 0.20725,0.19183 0.90135,0.81785 1.83491,1.63763 2.80019,2.46242 0.004,0.003 0.005,0.006 0.008,0.009 0.0127,0.0109 0.0273,0.0213 0.0401,0.0322 5.40562,4.61446 11.75771,9.31654 18.91023,13.91058 10.41172,6.6874 20.87481,12.11358 30.501,15.93634 0.008,0.003 0.0174,0.007 0.0256,0.0103 10e-4,5.3e-4 0.002,0.002 0.003,0.002 0.85409,0.33896 1.70341,0.66832 2.54346,0.98133 0.59815,0.22595 1.18254,0.42918 1.77361,0.64285 0.48363,0.17483 0.97547,0.3628 1.4517,0.52465 11.1277,3.78206 22.10416,5.42252 26.97422,1.18944 4.87009,-4.23306 1.04987,-12.09696 -5.62499,-19.74943 -2.06217,-2.3642 -4.48622,-4.8006 -7.19367,-7.27457 a 36.502205,36.502205 0 0 1 -3.6298,11.70887 c 0.53811,0.77125 0.95769,1.46013 1.29067,2.0848 -6.2e-4,2.2e-4 -3.2e-4,10e-4 -9.9e-4,0.002 0.0808,0.15681 0.1996,0.34123 0.26819,0.48862 0.0549,0.1184 0.11647,0.2416 0.1634,0.3537 0.1047,0.24955 0.18919,0.48207 0.25634,0.70054 0.0363,0.11802 0.0594,0.22668 0.0858,0.33589 0.0292,0.12193 0.0538,0.23888 0.0709,0.3499 0.0149,0.0942 0.0327,0.18884 0.0395,0.27538 0.0131,0.17432 0.0127,0.33663 -0.004,0.48013 -0.005,0.0492 -0.0178,0.0901 -0.0265,0.13579 -0.0221,0.11148 -0.0495,0.21635 -0.0893,0.30703 -0.0154,0.0346 -0.0298,0.0672 -0.0479,0.0986 -0.0612,0.11003 -0.13164,0.21216 -0.21761,0.28708 -0.0987,0.0857 -0.24468,0.15997 -0.40923,0.22832 -0.0583,0.0239 -0.1259,0.0434 -0.19288,0.0645 -0.12188,0.0393 -0.26515,0.0709 -0.4164,0.10014 -0.10438,0.0196 -0.20237,0.0418 -0.321,0.056 -0.17316,0.0216 -0.37789,0.0315 -0.58257,0.0403 -0.25325,0.01 -0.53203,0.008 -0.83456,-0.004 -0.14445,-0.005 -0.28782,-0.0131 -0.44395,-0.024 -0.25358,-0.0183 -0.52533,-0.0437 -0.81001,-0.0775 -0.15582,-0.0183 -0.3241,-0.0429 -0.48955,-0.0661 -0.33469,-0.0475 -0.74244,-0.13583 -1.11566,-0.20435 a 36.502205,36.502205 0 0 1 -9.9e-4,0.002 c -0.33716,-0.0618 -0.63597,-0.10335 -1.00745,-0.18473 -0.0813,-0.0178 -0.15039,-0.0303 -0.23332,-0.049 -0.002,-5.9e-4 -0.007,-0.003 -0.009,-0.003 -1.53312,-0.347 -3.31891,-0.84426 -5.44412,-1.56657 -7.79244,-2.64857 -18.41243,-7.77755 -28.96931,-14.55819 -10.55696,-6.78051 -18.9396,-13.8542 -23.6138,-19.21298 -0.64279,-0.73694 -1.18739,-1.41275 -1.67335,-2.0509 l 9.9e-4,-0.002 c -0.20459,-0.26866 -0.36845,-0.50919 -0.54509,-0.759 -0.004,-0.006 -0.006,-0.0113 -0.0103,-0.0172 -0.40328,-0.57146 -0.76533,-1.11402 -1.05007,-1.60309 -0.0587,-0.10103 -0.13072,-0.21204 -0.18444,-0.30946 -0.1478,-0.26713 -0.26139,-0.50995 -0.3741,-0.75048 -0.0629,-0.13487 -0.1326,-0.27563 -0.18499,-0.40224 -0.0868,-0.20843 -0.15219,-0.39847 -0.21252,-0.58503 -0.041,-0.12835 -0.0823,-0.25519 -0.11147,-0.37333 -0.0402,-0.15956 -0.0691,-0.30939 -0.0893,-0.45076 -0.0173,-0.12555 -0.0266,-0.24386 -0.0294,-0.35528 -0.003,-0.10801 -0.01,-0.2165 -5.5e-4,-0.31155 0.0129,-0.12418 0.0446,-0.2298 0.0768,-0.33227 0.0183,-0.0591 0.0278,-0.12773 0.0519,-0.17977 0.0675,-0.14406 0.15174,-0.2676 0.25694,-0.35909 0.0736,-0.0639 0.17221,-0.12293 0.28278,-0.17729 0.0448,-0.0217 0.0978,-0.0386 0.14877,-0.0584 0.0616,-0.0244 0.12937,-0.0479 0.20017,-0.0694 0.13277,-0.0394 0.32079,-0.0593 0.48394,-0.0882 0.13575,-0.0237 0.24108,-0.0579 0.40247,-0.0721 0.008,-7.1e-4 0.0177,-5.1e-4 0.0254,-10e-4 0.75111,-0.0637 1.75822,-0.0246 3.03986,0.16058 5.4e-4,8e-5 0.001,9.4e-4 0.002,9.9e-4 0.29624,0.0432 0.66433,0.12428 0.98663,0.18173 a 36.502205,36.502205 0 0 1 7.87544,-7.69925 z" />
    </g>
    <path
       style="font-weight:bold;font-size:34.3821px;font-family:Xolonium;-inkscape-font-specification:Xolonium;fill:#cecc7b;stroke-width:2.00563;stroke-linejoin:bevel;fill-opacity:1"
       d="m 505.25821,291.65653 v -8.80182 q 0,-3.85079 4.8135,-3.85079 h 7.90788 q 4.81349,0 4.81349,3.85079 v 5.26046 h -13.06519 v 3.8508 q 0,0.9627 1.20337,0.9627 h 11.17418 v 2.57865 h -12.03373 q -4.8135,0 -4.8135,-3.85079 z m 4.46968,-6.12001 h 8.59552 v -2.99125 q 0,-0.9627 -1.20337,-0.9627 h -6.18878 q -1.20337,0 -1.20337,0.9627 z m 17.19102,9.9708 v -2.57865 h 10.83037 q 1.20337,0 1.20337,-0.9627 v -2.8881 q 0,-0.9627 -1.20337,-0.9627 h -6.01687 q -4.8135,0 -4.8135,-3.85079 v -1.40967 q 0,-3.85079 4.8135,-3.85079 h 10.31463 v 2.57865 h -9.45508 q -1.20337,0 -1.20337,0.9627 v 2.02855 q 0,0.9627 1.20337,0.9627 h 6.01687 q 4.81349,0 4.81349,3.85079 v 2.26922 q 0,3.85079 -4.81349,3.85079 z m 20.28545,0 v -2.57865 h 10.83036 q 1.20337,0 1.20337,-0.9627 v -2.8881 q 0,-0.9627 -1.20337,-0.9627 h -6.01687 q -4.81349,0 -4.81349,-3.85079 v -1.40967 q 0,-3.85079 4.81349,-3.85079 h 10.31463 v 2.57865 h -9.45508 q -1.20337,0 -1.20337,0.9627 v 2.02855 q 0,0.9627 1.20337,0.9627 h 6.01687 q 4.8135,0 4.8135,3.85079 v 2.26922 q 0,3.85079 -4.8135,3.85079 z m 20.28544,-3.85079 v -2.26922 q 0,-3.85079 4.81349,-3.85079 h 8.25171 v -2.99125 q 0,-0.9627 -1.20337,-0.9627 h -10.48655 v -2.57865 h 11.3461 q 4.81349,0 4.81349,3.85079 v 12.65261 h -12.72138 q -4.81349,0 -4.81349,-3.85079 z m 4.46967,0.30944 q 0,0.9627 1.20338,0.9627 h 7.39215 v -4.8135 h -7.39215 q -1.20338,0 -1.20338,0.9627 z"
       id="text1"
       transform="scale(0.94093887,1.0627683)"
       aria-label="essa" />
    <path
       d="m 475.41713,331.48349 v -1.24539 h 5.23064 q 0.58118,0 0.58118,-0.46495 v -1.39483 q 0,-0.46495 -0.58118,-0.46495 h -2.90591 q -2.32473,0 -2.32473,-1.85978 v -0.68081 q 0,-1.85979 2.32473,-1.85979 h 4.98156 v 1.24539 h -4.56643 q -0.58118,0 -0.58118,0.46495 v 0.97971 q 0,0.46494 0.58118,0.46494 h 2.90591 q 2.32473,0 2.32473,1.85978 v 1.09595 q 0,1.85978 -2.32473,1.85978 z m 9.96312,-1.85978 v -4.25093 q 0,-1.85979 2.32473,-1.85979 h 4.1513 q 2.32473,0 2.32473,1.85979 v 4.25093 q 0,1.85978 -2.32473,1.85978 h -4.1513 q -2.32473,0 -2.32473,-1.85978 z m 2.15868,0.14944 q 0,0.46495 0.58118,0.46495 h 3.32104 q 0.58118,0 0.58118,-0.46495 v -4.54982 q 0,-0.46495 -0.58118,-0.46495 h -3.32104 q -0.58118,0 -0.58118,0.46495 z m 8.80075,1.71034 v -9.09965 q 0,-1.85978 2.32473,-1.85978 h 2.82289 v 1.24539 h -2.40776 q -0.58118,0 -0.58118,0.46494 v 1.2786 h 2.98894 v 1.24539 h -2.98894 v 6.72511 z m 6.80813,-1.85978 v -9.09965 h 2.15868 v 2.98893 h 2.98893 v 1.24539 h -2.98893 v 5.01477 q 0,0.46495 0.58118,0.46495 h 2.40775 v 1.24539 h -2.82288 q -2.32473,0 -2.32473,-1.85978 z m 6.14393,-6.11072 h 2.07565 l 1.99262,5.81182 1.99263,-5.81182 h 2.15867 l 1.99263,5.81182 1.99262,-5.81182 h 2.07565 l -2.73986,7.9705 h -2.40775 l -1.99263,-5.79521 -1.99262,5.79521 h -2.40775 z m 15.27677,6.11072 v -1.09595 q 0,-1.85978 2.32472,-1.85978 h 3.98525 v -1.44465 q 0,-0.46495 -0.58118,-0.46495 h -5.06459 v -1.24539 h 5.47972 q 2.32473,0 2.32473,1.85979 v 6.11071 h -6.14393 q -2.32472,0 -2.32472,-1.85978 z m 2.15867,0.14944 q 0,0.46495 0.58118,0.46495 h 3.57012 v -2.32473 h -3.57012 q -0.58118,0 -0.58118,0.46495 z m 8.46864,1.71034 v -6.11071 q 0,-1.85979 2.32473,-1.85979 h 2.82289 v 1.24539 h -2.40776 q -0.58118,0 -0.58118,0.46495 v 6.26016 z m 6.80813,-1.85978 v -4.25093 q 0,-1.85979 2.32473,-1.85979 h 3.8192 q 2.32472,0 2.32472,1.85979 v 2.54059 h -6.30997 v 1.85978 q 0,0.46495 0.58118,0.46495 h 5.39669 v 1.24539 h -5.81182 q -2.32473,0 -2.32473,-1.85978 z m 2.15868,-2.95573 h 4.1513 v -1.44465 q 0,-0.46495 -0.58118,-0.46495 h -2.98894 q -0.58118,0 -0.58118,0.46495 z"
       id="text3"
       style="font-size:16.6052px;font-family:Xolonium;-inkscape-font-specification:Xolonium;fill:#b3b042;stroke-width:0.968638;stroke-linejoin:bevel;fill-opacity:1"
       aria-label="software" />
    <text
       xml:space="preserve"
       style="font-size:5.33333px;font-family:Xolonium;-inkscape-font-specification:Xolonium;fill:#6a8ede;fill-opacity:1;stroke-width:0.7;stroke-linejoin:bevel"
       x="562.89813"
       y="305.89194"
       id="text4"><tspan
         sodipodi:role="line"
         id="tspan4"
         x="562.89813"
         y="305.89194"></tspan></text>
  </g>
</svg>
